<svg xmlns="http://www.w3.org/2000/svg" xmlns:xlink="http://www.w3.org/1999/xlink" width="113" height="113" viewBox="0 0 113 113">
  <defs>
    <filter id="Trazado_982547" x="0" y="0" width="113" height="113" filterUnits="userSpaceOnUse">
      <feOffset dy="3" input="SourceAlpha"/>
      <feGaussianBlur stdDeviation="3" result="blur"/>
      <feFlood flood-opacity="0.161"/>
      <feComposite operator="in" in2="blur"/>
      <feComposite in="SourceGraphic"/>
    </filter>
  </defs>
  <g id="Grupo_1202194" data-name="Grupo 1202194" transform="translate(-256 -826.25)">
    <g id="Grupo_1174742" data-name="Grupo 1174742" transform="translate(-16 -280.75)">
      <g id="Grupo_1163948" data-name="Grupo 1163948" transform="translate(0 -1371)">
        <g id="Grupo_1158168" data-name="Grupo 1158168" transform="translate(281 2484)">
          <g id="Grupo_1152576" data-name="Grupo 1152576" transform="translate(0)">
            <g id="Grupo_1148633" data-name="Grupo 1148633">
              <g id="Grupo_1148525" data-name="Grupo 1148525">
                <g transform="matrix(1, 0, 0, 1, -9, -6)" filter="url(#Trazado_982547)">
                  <g id="Trazado_982547-2" data-name="Trazado 982547" transform="translate(9 6)" fill="#fdf6e4">
                    <path d="M 47.5 93.5 C 41.28937149047852 93.5 35.26533508300781 92.28397369384766 29.59518623352051 89.88570404052734 C 24.11771965026855 87.56893157958984 19.19813346862793 84.25196075439453 14.97309303283691 80.02691650390625 C 10.74804019927979 75.80186462402344 7.431066513061523 70.88229370117188 5.114293098449707 65.40481567382812 C 2.716026782989502 59.73468017578125 1.5 53.71062850952148 1.5 47.5 C 1.5 41.28937149047852 2.716026782989502 35.26533508300781 5.114293098449707 29.59518623352051 C 7.431066513061523 24.11771965026855 10.74804019927979 19.19813346862793 14.97309303283691 14.97309303283691 C 19.19813346862793 10.74804019927979 24.11771965026855 7.431066513061523 29.59518623352051 5.114293098449707 C 35.26533508300781 2.716026782989502 41.28937149047852 1.5 47.5 1.5 C 53.71062850952148 1.5 59.73468017578125 2.716026782989502 65.40481567382812 5.114293098449707 C 70.88229370117188 7.431066513061523 75.80186462402344 10.74804019927979 80.02691650390625 14.97309303283691 C 84.25196075439453 19.19813346862793 87.56893157958984 24.11771965026855 89.88570404052734 29.59518623352051 C 92.28397369384766 35.26533508300781 93.5 41.28937149047852 93.5 47.5 C 93.5 53.71062850952148 92.28397369384766 59.73468017578125 89.88570404052734 65.40481567382812 C 87.56893157958984 70.88229370117188 84.25196075439453 75.80186462402344 80.02691650390625 80.02691650390625 C 75.80186462402344 84.25196075439453 70.88229370117188 87.56893157958984 65.40481567382812 89.88570404052734 C 59.73468017578125 92.28397369384766 53.71062850952148 93.5 47.5 93.5 Z" stroke="none"/>
                    <path d="M 47.5 3 C 41.49121475219727 3 35.66376876831055 4.176155090332031 30.17950439453125 6.495796203613281 C 24.88084411621094 8.736953735351562 20.12152099609375 11.94598388671875 16.03375244140625 16.03375244140625 C 11.94598388671875 20.12152099609375 8.736953735351562 24.88084411621094 6.495796203613281 30.17950439453125 C 4.176155090332031 35.66376876831055 3 41.49121475219727 3 47.5 C 3 53.50878524780273 4.176155090332031 59.33623123168945 6.495796203613281 64.82049560546875 C 8.736953735351562 70.11915588378906 11.94598388671875 74.87847900390625 16.03375244140625 78.96624755859375 C 20.12152099609375 83.05401611328125 24.88084411621094 86.26304626464844 30.17950439453125 88.50419616699219 C 35.66376876831055 90.82384490966797 41.49121475219727 92 47.5 92 C 53.50878524780273 92 59.33623123168945 90.82384490966797 64.82049560546875 88.50419616699219 C 70.11915588378906 86.26304626464844 74.87847900390625 83.05401611328125 78.96624755859375 78.96624755859375 C 83.05401611328125 74.87847900390625 86.26304626464844 70.11915588378906 88.50419616699219 64.82049560546875 C 90.82384490966797 59.33623123168945 92 53.50878524780273 92 47.5 C 92 41.49121475219727 90.82384490966797 35.66376876831055 88.50419616699219 30.17950439453125 C 86.26304626464844 24.88084411621094 83.05401611328125 20.12152099609375 78.96624755859375 16.03375244140625 C 74.87847900390625 11.94598388671875 70.11915588378906 8.736953735351562 64.82049560546875 6.495796203613281 C 59.33623123168945 4.176155090332031 53.50878524780273 3 47.5 3 M 47.5 0 C 73.7335205078125 0 95 21.2664794921875 95 47.5 C 95 73.7335205078125 73.7335205078125 95 47.5 95 C 21.2664794921875 95 0 73.7335205078125 0 47.5 C 0 21.2664794921875 21.2664794921875 0 47.5 0 Z" stroke="none" fill="#f5b104"/>
                  </g>
                </g>
              </g>
            </g>
          </g>
        </g>
      </g>
    </g>
    <g id="notes_17676734" transform="translate(284.476 848.525)">
      <g id="Grupo_1202186" data-name="Grupo 1202186" transform="translate(3.926 10.331)">
        <path id="Trazado_1040002" data-name="Trazado 1040002" d="M52.345,14.374,60.2,50.659a4.093,4.093,0,0,1-3.134,4.866L20.786,63.383A4.093,4.093,0,0,1,15.92,60.25L8.061,23.965A4.093,4.093,0,0,1,11.195,19.1l36.285-7.858A4.093,4.093,0,0,1,52.345,14.374Z" transform="translate(-7.071 -10.253)" fill="#53c496"/>
        <path id="Trazado_1040003" data-name="Trazado 1040003" d="M31.688,60.983l-10.9,2.37a4.087,4.087,0,0,1-4.873-3.137L14.4,53.24l-6.341-29.3A4.108,4.108,0,0,1,11.2,19.064L28.083,15.41a40.5,40.5,0,0,0-5.19,20.275A41.454,41.454,0,0,0,26.665,53.24a31.408,31.408,0,0,0,5.023,7.743Z" transform="translate(-7.071 -10.223)" opacity="0.15"/>
        <path id="Trazado_1040004" data-name="Trazado 1040004" d="M19.926,64.378a5,5,0,0,1-4.876-3.932L7.192,24.161a4.989,4.989,0,0,1,3.82-5.93L47.3,10.372a5,5,0,0,1,5.929,3.819l7.858,36.285A4.984,4.984,0,0,1,57.265,56.4l-36.283,7.86a4.964,4.964,0,0,1-1.055.114ZM48.353,12.05a3.221,3.221,0,0,0-.678.073L11.391,19.981a3.2,3.2,0,0,0-2.449,3.8L16.8,60.068a3.2,3.2,0,0,0,3.8,2.448l36.284-7.86a3.2,3.2,0,0,0,2.448-3.8L51.477,14.57a3.205,3.205,0,0,0-3.125-2.52Z" transform="translate(-7.078 -10.259)" fill="#101016"/>
      </g>
      <g id="Grupo_1202190" data-name="Grupo 1202190" transform="translate(0 7.146)">
        <g id="Grupo_1202188" data-name="Grupo 1202188">
          <path id="Trazado_1040005" data-name="Trazado 1040005" d="M49.378,12.078V35.639a4.092,4.092,0,0,1-1.2,2.894L34.615,52.1a4.092,4.092,0,0,1-2.894,1.2H8.16A4.092,4.092,0,0,1,4.067,49.2V12.078A4.093,4.093,0,0,1,8.16,7.986H45.286a4.092,4.092,0,0,1,4.092,4.092Z" transform="translate(-3.172 -7.09)" fill="#ffdc6e"/>
          <path id="Trazado_1040006" data-name="Trazado 1040006" d="M34.185,7.986a28.452,28.452,0,0,0-6.074,7.476,40.5,40.5,0,0,0-5.19,20.275,41.453,41.453,0,0,0,3.771,17.555H8.153A4.1,4.1,0,0,1,4.064,49.2V12.074A4.1,4.1,0,0,1,8.153,7.986Z" transform="translate(-3.172 -7.09)" opacity="0.15"/>
          <g id="Grupo_1202187" data-name="Grupo 1202187">
            <path id="Trazado_1040007" data-name="Trazado 1040007" d="M31.727,54.2H8.166a4.992,4.992,0,0,1-4.988-4.987V12.084A4.993,4.993,0,0,1,8.166,7.1H45.292a4.992,4.992,0,0,1,4.987,4.988V35.646a5.021,5.021,0,0,1-1.46,3.527L35.254,52.738a4.956,4.956,0,0,1-3.527,1.46ZM8.166,8.887a3.2,3.2,0,0,0-3.2,3.2V49.211a3.2,3.2,0,0,0,3.2,3.2H31.727a3.175,3.175,0,0,0,2.261-.935L47.553,37.907a3.218,3.218,0,0,0,.935-2.261V12.084a3.2,3.2,0,0,0-3.2-3.2H8.166Z" transform="translate(-3.179 -7.096)" fill="#101016"/>
            <path id="Trazado_1040008" data-name="Trazado 1040008" d="M41.9,21.614H11.45a.9.9,0,0,1,0-1.79H41.9a.9.9,0,1,1,0,1.79Z" transform="translate(-3.127 -7.007)" fill="#101016"/>
            <path id="Trazado_1040009" data-name="Trazado 1040009" d="M41.9,31.384H11.45a.9.9,0,0,1,0-1.79H41.9a.9.9,0,1,1,0,1.79Z" transform="translate(-3.127 -6.938)" fill="#101016"/>
            <path id="Trazado_1040010" data-name="Trazado 1040010" d="M24.9,41.154H11.45a.9.9,0,0,1,0-1.79H24.9a.9.9,0,0,1,0,1.79Z" transform="translate(-3.127 -6.87)" fill="#101016"/>
          </g>
        </g>
        <g id="Grupo_1202189" data-name="Grupo 1202189" transform="translate(29.349 29.349)">
          <path id="Trazado_1040011" data-name="Trazado 1040011" d="M48.794,37.129a3.872,3.872,0,0,1-.822,1.2L34.412,51.89a3.872,3.872,0,0,1-1.2.822v-12.5a3.076,3.076,0,0,1,3.082-3.082Z" transform="translate(-32.316 -36.234)" fill="#ffedad"/>
          <path id="Trazado_1040012" data-name="Trazado 1040012" d="M33.218,53.613a.9.9,0,0,1-.9-.9v-12.5A3.983,3.983,0,0,1,36.3,36.24H48.8a.9.9,0,0,1,.822,1.25,4.8,4.8,0,0,1-1.012,1.479l-13.56,13.56a4.779,4.779,0,0,1-1.482,1.012.912.912,0,0,1-.351.072ZM36.3,38.031a2.188,2.188,0,0,0-2.186,2.187V50.934l12.9-12.9Z" transform="translate(-32.322 -36.24)" fill="#101016"/>
        </g>
      </g>
      <g id="Grupo_1202193" data-name="Grupo 1202193" transform="translate(12.213)">
        <g id="Grupo_1202191" data-name="Grupo 1202191" transform="translate(4.752 4.776)">
          <path id="Trazado_1040013" data-name="Trazado 1040013" d="M27.755,12.45a1.581,1.581,0,0,1-2.235,0L21.376,8.306a1.58,1.58,0,1,1,2.235-2.235l4.144,4.144A1.58,1.58,0,0,1,27.755,12.45Z" transform="translate(-20.019 -4.736)" fill="#f0f0fc"/>
          <path id="Trazado_1040014" data-name="Trazado 1040014" d="M26.643,13.813a2.468,2.468,0,0,1-1.75-.724L20.749,8.945a2.479,2.479,0,0,1,0-3.5,2.535,2.535,0,0,1,3.5,0l4.144,4.144a2.475,2.475,0,0,1-1.751,4.225ZM22.5,6.51a.685.685,0,0,0-.485,1.17l4.144,4.144a.686.686,0,1,0,.97-.97L22.984,6.71a.683.683,0,0,0-.484-.2Z" transform="translate(-20.025 -4.742)" fill="#101016"/>
        </g>
        <g id="Grupo_1202192" data-name="Grupo 1202192">
          <circle id="Elipse_12297" data-name="Elipse 12297" cx="5.103" cy="5.103" r="5.103" transform="translate(0.891 0.892)" fill="#f7524b"/>
          <path id="Trazado_1040015" data-name="Trazado 1040015" d="M21.3,11.99a5.994,5.994,0,1,1,4.24-1.754A5.976,5.976,0,0,1,21.3,11.99Zm0-10.2a4.2,4.2,0,1,0,2.974,1.23A4.194,4.194,0,0,0,21.3,1.79Z" transform="translate(-15.306 0)" fill="#101016"/>
        </g>
      </g>
    </g>
  </g>
</svg>
