<svg xmlns="http://www.w3.org/2000/svg" width="107.253" height="107.303" viewBox="0 0 107.253 107.303">
  <g id="inspire-idea_14781822_1_" data-name="inspire-idea_14781822 (1)" transform="translate(1.016 0.75)">
    <g id="Grupo_1173811" data-name="Grupo 1173811" transform="translate(0 0)">
      <path id="Trazado_1030754" data-name="Trazado 1030754" d="M118.589,358.739v-7.726a4.7,4.7,0,0,0,3.818-4.615V333.114h24.265V346.4a4.7,4.7,0,0,0,3.818,4.615l.661,6.654Z" transform="translate(-95.04 -263.933)" fill="#ca6e59"/>
      <path id="Trazado_1030755" data-name="Trazado 1030755" d="M85.8,28.411C85.8,43.7,77.57,61.857,56.627,55.85L39.152,47.9A6.9,6.9,0,0,1,38.7,37.7l1.763-.487L41.68,36A7.291,7.291,0,0,1,43.142,23.49a.643.643,0,0,0,.377-.748,6.922,6.922,0,0,1-.193-1.629,6.737,6.737,0,0,1,6.663-6.807,6.669,6.669,0,0,1,1.3.13,3.162,3.162,0,0,1,.5-.51A2.691,2.691,0,0,0,52.9,11.577a7.509,7.509,0,0,1,10.52-.743.634.634,0,0,0,.951-.153,6.592,6.592,0,0,1,11.282,0,.634.634,0,0,0,.952.152,7.485,7.485,0,0,1,1.5-.994C85.8,12.171,85.8,22.9,85.8,28.411Z" transform="translate(-30.518 -7.5)" fill="#73788c"/>
      <path id="Trazado_1030756" data-name="Trazado 1030756" d="M177.388,48.265a6.849,6.849,0,0,1-2.492,5.307L154.91,64.433H137.044l-6.4-2.913a31.393,31.393,0,0,0,21.48-46.011A7.437,7.437,0,0,1,155.5,14.7a7.539,7.539,0,0,1,5.641,2.547l.351,1.715,1.271,1.143a6.664,6.664,0,0,1,1.294-.13,6.737,6.737,0,0,1,6.665,6.807,6.958,6.958,0,0,1-.351,2.178,7.284,7.284,0,0,1,1.995,12.707A6.785,6.785,0,0,1,177.388,48.265Z" transform="translate(-104.531 -13.17)" fill="#5e6577"/>
      <path id="Trazado_1030757" data-name="Trazado 1030757" d="M96.831,208.471a11.632,11.632,0,0,0,8.861-11.3h0a4.625,4.625,0,0,0-4.625-4.626H96.831l-46.6.006H46a4.625,4.625,0,0,0-4.625,4.626h0a11.632,11.632,0,0,0,8.861,11.3Z" transform="translate(-34.231 -153.233)" fill="#ca6e59"/>
      <path id="Trazado_1030758" data-name="Trazado 1030758" d="M118.318,131.179a4.6,4.6,0,0,1,6.01,1.98,18.477,18.477,0,0,0,1.541,2.342l1,1.336c.425,1.241,1.372,7.036,2.684,7.036V161.52A14.722,14.722,0,0,1,124.53,172.6l-9.142,8a9.813,9.813,0,0,1-6.461,2.426h-5.422a9.813,9.813,0,0,1-6.461-2.426l-9.142-8a14.721,14.721,0,0,1-5.028-11.081V143.873a3.125,3.125,0,0,0,2.9-2.135l2.013-7.855a4.6,4.6,0,0,1,6.338-2.66l.294.141,2.368.907a26.222,26.222,0,0,0,18.764,0l2.368-.907Z" transform="translate(-66.914 -104.556)" fill="#d78878"/>
      <path id="Trazado_1030759" data-name="Trazado 1030759" d="M173.354,303.7c-5.04,0-5.265-4.652-5.18-6.34a.636.636,0,0,1,.637-.6h9.072a.636.636,0,0,1,.637.618C178.562,299.079,178.229,303.7,173.354,303.7Z" transform="translate(-134.081 -235.303)" fill="#eaf6ff"/>
      <path id="Trazado_1030760" data-name="Trazado 1030760" d="M21.723,447.656l-13.336-.031a.636.636,0,0,1-.637-.637V435.147a.638.638,0,0,1,.342-.567,20.6,20.6,0,0,1,5.556-1.912l1.536-.308,13.552,5.027Z" transform="translate(-7.75 -342.093)" fill="#9be69d"/>
      <path id="Trazado_1030761" data-name="Trazado 1030761" d="M313.1,438.853l-5.144,8.395-17.758.013-6.425-11.252c.07-.072,12.99-4.129,12.99-4.129l.877.168a20.613,20.613,0,0,1,5.807,2.044Z" transform="translate(-225.128 -341.715)" fill="#9be69d"/>
      <path id="Trazado_1030762" data-name="Trazado 1030762" d="M140.058,418.39l1.94,9.749-7.014,8.491-21.3.024-8.079-8.905,3.013-9.31A21.815,21.815,0,0,0,140.058,418.39Z" transform="translate(-84.816 -331.091)" fill="#eaf6ff"/>
      <path id="Trazado_1030763" data-name="Trazado 1030763" d="M60.8,420.694,55,399.833a2.335,2.335,0,0,0-2.929-1.608l-12.9,3.93a1.011,1.011,0,0,0-.632,1.378l2.721,6.16a.638.638,0,0,0,.44.364l6.628,1.521a.637.637,0,0,1,.38.986l-3.6,5.155a.637.637,0,0,0-.077.58l.866,2.394Z" transform="translate(-31.932 -315.131)" fill="#bbf49b"/>
      <path id="Trazado_1030764" data-name="Trazado 1030764" d="M243.879,420.489l5.809-20.885A2.334,2.334,0,0,1,252.616,398l12.9,3.929a1.013,1.013,0,0,1,.632,1.379l-2.721,6.161a.637.637,0,0,1-.441.364l-6.629,1.52a.637.637,0,0,0-.38.986l3.6,5.156a.637.637,0,0,1,.077.58l-.87,2.424Z" transform="translate(-193.71 -314.951)" fill="#bbf49b"/>
      <g id="Grupo_1173808" data-name="Grupo 1173808" transform="translate(78.65 57.635)">
        <path id="Trazado_1030765" data-name="Trazado 1030765" d="M403.178,387.922v8.171a24.883,24.883,0,0,1-.56,4.953,17.392,17.392,0,0,1-2.013,3.621c-1.287,2.167-.724,4.4-.715,6.918l-1.633,1.044h-16.1v-3.5a8.786,8.786,0,0,0-2.312-5.938,7.273,7.273,0,0,1-1.91-4.908v-3.521a4.309,4.309,0,0,1,1.84-3.531Z" transform="translate(-377.933 -364.731)" fill="#d78878"/>
        <g id="Grupo_1173807" data-name="Grupo 1173807" transform="translate(19.651 13.719)">
          <path id="Trazado_1030766" data-name="Trazado 1030766" d="M476.019,344.72v8.1a1.7,1.7,0,0,1-.682,1.521c-.51.51-2.3-.27-3.079-.263l-1.385-1.481-.448-5.266,1.47-1.135a2.849,2.849,0,0,1,2.775-2.845C475.605,343.7,476.019,344.178,476.019,344.72Z" transform="translate(-470.425 -343.349)" fill="#d78878"/>
          <path id="Trazado_1030767" data-name="Trazado 1030767" d="M484.393,346.187v6.4a2.852,2.852,0,0,1-5.157,1.674l-.183-.193a2.851,2.851,0,0,0,2.826-2.851v-6.4a2.834,2.834,0,0,0-.414-1.481c.026,0,.051,0,.077,0A2.85,2.85,0,0,1,484.393,346.187Z" transform="translate(-477.221 -343.34)" fill="#ca6e59"/>
        </g>
        <path id="Trazado_1030768" data-name="Trazado 1030768" d="M480.061,386.87v8.522a13.892,13.892,0,0,1-1.955,7.107,13.9,13.9,0,0,0-1.953,7.16l.006,1.5a.637.637,0,0,1-.637.64h-1.961l-.009-2.142a13.924,13.924,0,0,1,1.955-7.16,13.892,13.892,0,0,0,1.955-7.107v-8.154Z" transform="translate(-453.238 -363.903)" fill="#ca6e59"/>
        <path id="Trazado_1030769" data-name="Trazado 1030769" d="M393.948,282.767V305.78c0,1.653-2.7,3-4.358,3l1.4-3.754-1.943-1.847V282.767a3.008,3.008,0,0,1,1.772-2.737A2.779,2.779,0,0,1,393.948,282.767Z" transform="translate(-386.69 -279.762)" fill="#d78878"/>
        <path id="Trazado_1030770" data-name="Trazado 1030770" d="M420.545,333.589v7.551c0,1.217-1.977,2.271-3.022,2.741a3.011,3.011,0,0,1-1.778-2.741l-.734-.162v-7.129l.734-.26a3.011,3.011,0,0,1,1.778-2.739C420.043,331.172,420.545,332.373,420.545,333.589Z" transform="translate(-407.133 -319.785)" fill="#d78878"/>
        <path id="Trazado_1030771" data-name="Trazado 1030771" d="M450.252,333.589V341.6c0,1.215-2.2,2.269-3.244,2.739a3.008,3.008,0,0,1-1.778-2.739l-.716-.457v-7.226l.716-.325a3.011,3.011,0,0,1,1.778-2.739C449.857,331.237,450.252,332.373,450.252,333.589Z" transform="translate(-430.368 -319.785)" fill="#d78878"/>
        <path id="Trazado_1030772" data-name="Trazado 1030772" d="M401.871,281.774v21.789a1.359,1.359,0,0,1-2.707,0V281.774a3.012,3.012,0,0,0-1.77-2.737,2.959,2.959,0,0,1,1.232-.268h.24A3.012,3.012,0,0,1,401.871,281.774Z" transform="translate(-393.259 -278.77)" fill="#ca6e59"/>
        <path id="Trazado_1030773" data-name="Trazado 1030773" d="M431.306,332.6v7.551a3.014,3.014,0,0,1-3,3.006h-.242a2.935,2.935,0,0,1-1.226-.266,3.012,3.012,0,0,0,1.778-2.741V332.6a3.011,3.011,0,0,0-1.778-2.739,2.936,2.936,0,0,1,1.226-.266h.242A3.014,3.014,0,0,1,431.306,332.6Z" transform="translate(-416.444 -318.801)" fill="#ca6e59"/>
        <path id="Trazado_1030774" data-name="Trazado 1030774" d="M460.726,332.6v8.008a3.014,3.014,0,0,1-3.006,3h-.24a2.927,2.927,0,0,1-1.226-.266,3.009,3.009,0,0,0,1.776-2.739V332.6a3.011,3.011,0,0,0-1.776-2.739,2.929,2.929,0,0,1,1.226-.266h.24A3.015,3.015,0,0,1,460.726,332.6Z" transform="translate(-439.614 -318.801)" fill="#ca6e59"/>
        <path id="Trazado_1030775" data-name="Trazado 1030775" d="M410.146,368.887a6.463,6.463,0,0,1-.137,1.323c-.558,2.672-4.534,3-7.351,3.3,0,0-3.06-1.426-5.325-.725-1.685.521-2.742,3.226-2.767,3.208L389.05,373.1v-2.716l5.325-3.829a5.966,5.966,0,0,1,3.409-1.11l8.841-.084A3.525,3.525,0,0,1,410.146,368.887Z" transform="translate(-386.688 -346.968)" fill="#ca6e59"/>
        <path id="Trazado_1030776" data-name="Trazado 1030776" d="M394.695,386.033l2.516-3.385a.638.638,0,0,1,.435-.253l5.436-.659a4.314,4.314,0,0,0,2.974-4.138,1.451,1.451,0,0,0-1.461-1.42h-8a5.4,5.4,0,0,0-3.1.975l-6.9,4.831Z" transform="translate(-384.755 -355.483)" fill="#d78878"/>
      </g>
      <g id="Grupo_1173810" data-name="Grupo 1173810" transform="translate(58.377 3.003)">
        <path id="Trazado_1030777" data-name="Trazado 1030777" d="M325.132,38.658c0,13.81-10.765,25.132-24.575,25.132-4.483,0-14.326-3.29-15.606-6.863l.242-.977a.631.631,0,0,0-.055-.444A23.2,23.2,0,0,1,321.061,27.42C324.041,32.081,325.132,35.956,325.132,38.658Z" transform="translate(-282.517 -21.635)" fill="#eaf6ff"/>
        <path id="Trazado_1030778" data-name="Trazado 1030778" d="M329.475,71.18a23.235,23.235,0,0,1-34.823,14.836.633.633,0,0,0-.45-.083l-9.567,1.823a.638.638,0,0,1-.739-.78l2.127-8.6a25.019,25.019,0,0,0,36.11-29.507A23.143,23.143,0,0,1,329.475,71.18Z" transform="translate(-283.588 -43.08)" fill="#d8ecfe"/>
        <g id="Grupo_1173809" data-name="Grupo 1173809" transform="translate(11.227 5.779)">
          <path id="Trazado_1030779" data-name="Trazado 1030779" d="M356.563,61.272c0,6.216-6.529,12.229-12.873,12.229-.962,0-2,.654-3.683-1.828a13.517,13.517,0,0,0-1.662-2.924,11.515,11.515,0,0,1,6.5-19.067C353.559,49.682,356.563,55.742,356.563,61.272Z" transform="translate(-335.361 -49.502)" fill="#ffe177"/>
          <path id="Trazado_1030780" data-name="Trazado 1030780" d="M374.3,60.352a11.475,11.475,0,0,1-2.93,7.672,13.9,13.9,0,0,0-2.788,8.29v.72l-11.593.037v-.636a19.461,19.461,0,0,0-1.425-6.335,11.661,11.661,0,0,0,2.79.335c6.344,0,11.839-4.131,11.839-10.347a11.322,11.322,0,0,0-9.441-11.074A11.524,11.524,0,0,1,374.3,60.352Z" transform="translate(-351.275 -48.837)" fill="#ffd15b"/>
          <path id="Trazado_1030781" data-name="Trazado 1030781" d="M370.767,179.51l1.8,3.52c0,1.91-1.144,3.52-5.258,3.52h-.9a3.457,3.457,0,0,1-3.457-3.457V179.51h7.816Z" transform="translate(-357.089 -151.747)" fill="#5e6577"/>
          <path id="Trazado_1030782" data-name="Trazado 1030782" d="M390.42,179.511v3.582a3.457,3.457,0,0,1-3.457,3.457h-3.489a3.456,3.456,0,0,0,3.456-3.457v-3.582Z" transform="translate(-373.252 -151.748)" fill="#4d5263"/>
          <path id="Trazado_1030783" data-name="Trazado 1030783" d="M362.2,161.751c0,.765.464,1.632,0,2.135s-3.911,1.1-4.621,1.1h-8.5a2.675,2.675,0,0,1-2.567-2.771,2.888,2.888,0,0,1,.751-1.961,2.474,2.474,0,0,1,1.816-.811h8.5C358.993,159.439,362.2,160.219,362.2,161.751Z" transform="translate(-344.137 -135.94)" fill="#73788c"/>
          <path id="Trazado_1030784" data-name="Trazado 1030784" d="M405.835,162.212a2.884,2.884,0,0,1-.751,1.96,2.475,2.475,0,0,1-1.816.811h-4.657a2.471,2.471,0,0,0,1.816-.811,2.884,2.884,0,0,0,.751-1.96,2.676,2.676,0,0,0-2.567-2.773h4.657A2.675,2.675,0,0,1,405.835,162.212Z" transform="translate(-385.173 -135.94)" fill="#5e6577"/>
        </g>
      </g>
    </g>
    <g id="Grupo_1173820" data-name="Grupo 1173820" transform="translate(0)">
      <g id="Grupo_1173812" data-name="Grupo 1173812" transform="translate(7.144 39.322)">
        <path id="Trazado_1030785" data-name="Trazado 1030785" d="M50.13,208.473a11.632,11.632,0,0,1-8.754-11.27h0A4.625,4.625,0,0,1,46,192.577h4.236" transform="translate(-41.376 -192.577)" fill="none" stroke="#000" stroke-linecap="round" stroke-linejoin="round" stroke-miterlimit="10" stroke-width="1.5"/>
        <path id="Trazado_1030786" data-name="Trazado 1030786" d="M311.154,232.041a11.652,11.652,0,0,1-8.1,7.5" transform="translate(-247.46 -223.656)" fill="none" stroke="#000" stroke-linecap="round" stroke-linejoin="round" stroke-miterlimit="10" stroke-width="1.5"/>
      </g>
      <path id="Trazado_1030787" data-name="Trazado 1030787" d="M209.872,133.748a26.218,26.218,0,0,0,5.7-1.476l2.368-.907.393-.185a4.6,4.6,0,0,1,6.312,2.673" transform="translate(-166.929 -104.556)" fill="none" stroke="#000" stroke-linecap="round" stroke-linejoin="round" stroke-miterlimit="10" stroke-width="1.5"/>
      <path id="Trazado_1030788" data-name="Trazado 1030788" d="M129.558,152.563v9.073a14.721,14.721,0,0,1-5.028,11.081l-9.142,8a9.813,9.813,0,0,1-6.461,2.427h-5.422a9.813,9.813,0,0,1-6.461-2.427l-9.142-8a14.721,14.721,0,0,1-5.028-11.081V143.989a3.125,3.125,0,0,0,2.9-2.135L87.792,134a4.6,4.6,0,0,1,6.338-2.66l.294.141,2.368.907a26.205,26.205,0,0,0,5.665,1.471" transform="translate(-66.914 -104.672)" fill="none" stroke="#000" stroke-linecap="round" stroke-linejoin="round" stroke-miterlimit="10" stroke-width="1.5"/>
      <g id="Grupo_1173814" data-name="Grupo 1173814" transform="translate(25.818 37.303)">
        <g id="Grupo_1173813" data-name="Grupo 1173813">
          <path id="Trazado_1030789" data-name="Trazado 1030789" d="M186.556,262.089a4.925,4.925,0,0,1-4.467,0" transform="translate(-170.866 -245.301)" fill="none" stroke="#000" stroke-linecap="round" stroke-linejoin="round" stroke-miterlimit="10" stroke-width="1.5"/>
          <path id="Trazado_1030790" data-name="Trazado 1030790" d="M137.435,184.119a8.5,8.5,0,0,0-8.169,0" transform="translate(-129.266 -183.073)" fill="none" stroke="#000" stroke-linecap="round" stroke-linejoin="round" stroke-miterlimit="10" stroke-width="1.5"/>
          <path id="Trazado_1030791" data-name="Trazado 1030791" d="M225.655,184.119a8.5,8.5,0,0,0-8.169,0" transform="translate(-198.743 -183.073)" fill="none" stroke="#000" stroke-linecap="round" stroke-linejoin="round" stroke-miterlimit="10" stroke-width="1.5"/>
          <line id="Línea_813" data-name="Línea 813" y1="3.619" transform="translate(22.828 6.135)" fill="none" stroke="#000" stroke-linecap="round" stroke-linejoin="round" stroke-miterlimit="10" stroke-width="1.5"/>
          <line id="Línea_814" data-name="Línea 814" y1="3.619" transform="translate(4.085 6.135)" fill="none" stroke="#000" stroke-linecap="round" stroke-linejoin="round" stroke-miterlimit="10" stroke-width="1.5"/>
        </g>
        <path id="Trazado_1030792" data-name="Trazado 1030792" d="M173.355,303.7c-6.158,0-5.128-6.943-5.128-6.943h10.255S179.328,303.7,173.355,303.7Z" transform="translate(-159.898 -272.606)" fill="none" stroke="#000" stroke-linecap="round" stroke-linejoin="round" stroke-miterlimit="10" stroke-width="1.5"/>
      </g>
      <path id="Trazado_1030793" data-name="Trazado 1030793" d="M95.114,16.689a6.569,6.569,0,0,0-6.361-2.253A7.647,7.647,0,0,0,81.492,9.03a7.525,7.525,0,0,0-5.455,2.348,6.607,6.607,0,0,0-12.034,0A7.525,7.525,0,0,0,58.549,9.03a7.647,7.647,0,0,0-7.261,5.406,6.565,6.565,0,0,0-1.3-.13,6.736,6.736,0,0,0-6.664,6.806,6.927,6.927,0,0,0,.35,2.178,7.285,7.285,0,0,0-2,12.709,6.865,6.865,0,0,0-2.528,11.9" transform="translate(-30.521 -7.5)" fill="none" stroke="#000" stroke-linecap="round" stroke-linejoin="round" stroke-miterlimit="10" stroke-width="1.5"/>
      <path id="Trazado_1030794" data-name="Trazado 1030794" d="M63.334,142.86a6.67,6.67,0,0,1-3.007-1.219" transform="translate(-49.156 -113.141)" fill="none" stroke="#000" stroke-linecap="round" stroke-linejoin="round" stroke-miterlimit="10" stroke-width="1.5"/>
      <path id="Trazado_1030795" data-name="Trazado 1030795" d="M105.6,40.2a6.323,6.323,0,0,1,4.008,2.663" transform="translate(-84.811 -33.252)" fill="none" stroke="#000" stroke-linecap="round" stroke-linejoin="round" stroke-miterlimit="10" stroke-width="1.5"/>
      <path id="Trazado_1030796" data-name="Trazado 1030796" d="M269.765,40.183a6.333,6.333,0,0,0-3.219,2.453" transform="translate(-211.562 -33.239)" fill="none" stroke="#000" stroke-linecap="round" stroke-linejoin="round" stroke-miterlimit="10" stroke-width="1.5"/>
      <path id="Trazado_1030797" data-name="Trazado 1030797" d="M326.788,47.247q-.107.673-.253,1.348a23.918,23.918,0,0,1-36.065,15.14l-11.1,2.116,2.741-11.1A23.857,23.857,0,0,1,299.179,20" transform="translate(-221.602 -17.346)" fill="none" stroke="#000" stroke-linecap="round" stroke-linejoin="round" stroke-miterlimit="10" stroke-width="1.5"/>
      <path id="Trazado_1030798" data-name="Trazado 1030798" d="M407.545,19.544q.857.122,1.717.308a23.884,23.884,0,0,1,18.533,19.6" transform="translate(-322.604 -16.985)" fill="none" stroke="#000" stroke-linecap="round" stroke-linejoin="round" stroke-miterlimit="10" stroke-width="1.5"/>
      <g id="Grupo_1173815" data-name="Grupo 1173815" transform="translate(69.604 8.788)">
        <path id="Trazado_1030799" data-name="Trazado 1030799" d="M340.36,71.964a13.58,13.58,0,0,0-2.026-3.9,11.5,11.5,0,1,1,17.1-.058,14.187,14.187,0,0,0-2.061,3.911" transform="translate(-335.355 -48.863)" fill="none" stroke="#000" stroke-linecap="round" stroke-linejoin="round" stroke-miterlimit="10" stroke-width="1.5"/>
        <line id="Línea_815" data-name="Línea 815" y1="8.457" transform="translate(11.502 14.599)" fill="none" stroke="#000" stroke-linecap="round" stroke-linejoin="round" stroke-miterlimit="10" stroke-width="1.5"/>
        <path id="Trazado_1030800" data-name="Trazado 1030800" d="M374.211,186.134v1.309a4.249,4.249,0,0,1-4.249,4.249h-2.795a4.249,4.249,0,0,1-4.249-4.249v-1.309" transform="translate(-357.062 -156.969)" fill="none" stroke="#000" stroke-linecap="round" stroke-linejoin="round" stroke-miterlimit="10" stroke-width="1.5"/>
        <path id="Trazado_1030801" data-name="Trazado 1030801" d="M363.223,163.583H351.775a2.908,2.908,0,0,1-2.908-2.908V160.5a2.908,2.908,0,0,1,2.908-2.908h11.447a2.908,2.908,0,0,1,2.908,2.908v.172A2.908,2.908,0,0,1,363.223,163.583Z" transform="translate(-345.996 -134.494)" fill="none" stroke="#000" stroke-linecap="round" stroke-linejoin="round" stroke-miterlimit="10" stroke-width="1.5"/>
        <line id="Línea_816" data-name="Línea 816" x2="7.364" transform="translate(7.974 14.58)" fill="none" stroke="#000" stroke-linecap="round" stroke-linejoin="round" stroke-miterlimit="10" stroke-width="1.5"/>
      </g>
      <path id="Trazado_1030802" data-name="Trazado 1030802" d="M346.53,432.2l.534.1a20.573,20.573,0,0,1,5.805,2.044" transform="translate(-274.552 -341.963)" fill="none" stroke="#000" stroke-linecap="round" stroke-linejoin="round" stroke-miterlimit="10" stroke-width="1.5"/>
      <path id="Trazado_1030803" data-name="Trazado 1030803" d="M250.768,358.351v7.923a4.7,4.7,0,0,0,3.818,4.615" transform="translate(-199.136 -283.808)" fill="none" stroke="#000" stroke-linecap="round" stroke-linejoin="round" stroke-miterlimit="10" stroke-width="1.5"/>
      <path id="Trazado_1030804" data-name="Trazado 1030804" d="M118.589,417.362h0a21.82,21.82,0,0,0,31.9,0h0" transform="translate(-95.04 -330.282)" fill="none" stroke="#000" stroke-linecap="round" stroke-linejoin="round" stroke-miterlimit="10" stroke-width="1.5"/>
      <path id="Trazado_1030805" data-name="Trazado 1030805" d="M14.484,374.215l-.836.168a20.57,20.57,0,0,0-5.9,2.094m27.367-18.125v7.923a4.7,4.7,0,0,1-3.818,4.615l-.244.047" transform="translate(-7.75 -283.808)" fill="none" stroke="#000" stroke-linecap="round" stroke-linejoin="round" stroke-miterlimit="10" stroke-width="1.5"/>
      <g id="Grupo_1173816" data-name="Grupo 1173816" transform="translate(5.939 82.993)">
        <path id="Trazado_1030806" data-name="Trazado 1030806" d="M55.582,411.821l-3.334-11.988a2.335,2.335,0,0,0-2.929-1.608l-12.9,3.93a1.011,1.011,0,0,0-.632,1.378l2.85,6.453,7.861,1.8-4.326,6.2.981,2.735" transform="translate(-35.703 -398.124)" fill="none" stroke="#000" stroke-linecap="round" stroke-linejoin="round" stroke-miterlimit="10" stroke-width="1.5"/>
        <line id="Línea_817" data-name="Línea 817" x1="0.484" y1="1.74" transform="translate(21.871 20.861)" fill="none" stroke="#000" stroke-linecap="round" stroke-linejoin="round" stroke-miterlimit="10" stroke-width="1.5"/>
        <path id="Trazado_1030807" data-name="Trazado 1030807" d="M244.868,420.726l5.811-20.892a2.334,2.334,0,0,1,2.929-1.607l12.9,3.929a1.013,1.013,0,0,1,.632,1.379l-2.85,6.453-7.861,1.8,4.327,6.2-.981,2.734" transform="translate(-200.428 -398.125)" fill="none" stroke="#000" stroke-linecap="round" stroke-linejoin="round" stroke-miterlimit="10" stroke-width="1.5"/>
      </g>
      <g id="Grupo_1173819" data-name="Grupo 1173819" transform="translate(78.664 57.696)">
        <g id="Grupo_1173817" data-name="Grupo 1173817" transform="translate(21.122 13.718)">
          <path id="Trazado_1030808" data-name="Trazado 1030808" d="M483.114,346.474a2.847,2.847,0,0,0-2.847-2.847h0a2.851,2.851,0,0,0-2.851,2.851v6.395a2.851,2.851,0,0,0,2.851,2.851h0a2.851,2.851,0,0,0,2.851-2.851Z" transform="translate(-477.412 -343.626)" fill="none" stroke="#000" stroke-linecap="round" stroke-linejoin="round" stroke-miterlimit="10" stroke-width="1.5"/>
          <path id="Trazado_1030809" data-name="Trazado 1030809" d="M490.831,400.563" transform="translate(-487.98 -388.466)" fill="none" stroke="#000" stroke-linecap="round" stroke-linejoin="round" stroke-miterlimit="10" stroke-width="1.5"/>
        </g>
        <g id="Grupo_1173818" data-name="Grupo 1173818" transform="translate(22.916 23.046)">
          <path id="Trazado_1030810" data-name="Trazado 1030810" d="M489.765,387.53v8.521a13.84,13.84,0,0,1-1.954,7.029h0a13.907,13.907,0,0,0-1.954,7.16l.008,2.142" transform="translate(-485.858 -387.53)" fill="none" stroke="#000" stroke-linecap="round" stroke-linejoin="round" stroke-miterlimit="10" stroke-width="1.5"/>
        </g>
        <path id="Trazado_1030811" data-name="Trazado 1030811" d="M433.859,414.75a11.656,11.656,0,0,1,2.489,10.657l-.088.34" transform="translate(-421.991 -385.92)" fill="none" stroke="#000" stroke-linecap="round" stroke-linejoin="round" stroke-miterlimit="10" stroke-width="1.5"/>
        <path id="Trazado_1030812" data-name="Trazado 1030812" d="M389.115,305.06v-23a3.013,3.013,0,0,1,3-3h.241a3.013,3.013,0,0,1,3,3v18.687" transform="translate(-386.753 -279.057)" fill="none" stroke="#000" stroke-linecap="round" stroke-linejoin="round" stroke-miterlimit="10" stroke-width="1.5"/>
        <path id="Trazado_1030813" data-name="Trazado 1030813" d="M418.532,332.9a3.013,3.013,0,0,1,3-3h.241a3.013,3.013,0,0,1,3,3v6.839" transform="translate(-409.92 -319.092)" fill="none" stroke="#000" stroke-linecap="round" stroke-linejoin="round" stroke-miterlimit="10" stroke-width="1.5"/>
        <path id="Trazado_1030814" data-name="Trazado 1030814" d="M447.947,339.663V332.9a3.013,3.013,0,0,1,3-3h.241a3.013,3.013,0,0,1,3,3v2.868" transform="translate(-433.086 -319.092)" fill="none" stroke="#000" stroke-linecap="round" stroke-linejoin="round" stroke-miterlimit="10" stroke-width="1.5"/>
        <path id="Trazado_1030815" data-name="Trazado 1030815" d="M387.939,386.322l2.679-3.6,5.368-.692a4.314,4.314,0,0,0,2.974-4.1,1.46,1.46,0,0,0-1.461-1.459H389.84a5.4,5.4,0,0,0-3.1.975l-6.9,4.831a4.312,4.312,0,0,0-1.84,3.532v3.52a7.264,7.264,0,0,0,1.911,4.907,8.789,8.789,0,0,1,2.311,5.94v3.5" transform="translate(-377.999 -355.772)" fill="none" stroke="#000" stroke-linecap="round" stroke-linejoin="round" stroke-miterlimit="10" stroke-width="1.5"/>
      </g>
    </g>
  </g>
</svg>
